<svg xmlns="http://www.w3.org/2000/svg" xmlns:xlink="http://www.w3.org/1999/xlink" width="700" zoomAndPan="magnify" viewBox="0 0 525 225" height="300" preserveAspectRatio="xMidYMid meet" version="1.0"><defs><g/><clipPath id="a0c9264d75"><path d="M 341 88 L 446.597656 88 L 446.597656 183 L 341 183 Z M 341 88 " clip-rule="nonzero"/></clipPath><clipPath id="78c2b8f87e"><path d="M 474.402344 41.792969 L 524.9375 41.792969 L 524.9375 118.707031 L 474.402344 118.707031 Z M 474.402344 41.792969 " clip-rule="nonzero"/></clipPath><clipPath id="e989701968"><path d="M 479.675781 95.773438 L 513.746094 95.773438 L 513.746094 119.902344 L 479.675781 119.902344 Z M 479.675781 95.773438 " clip-rule="nonzero"/></clipPath><clipPath id="81b3fc459a"><path d="M 477 40.503906 L 482 40.503906 L 482 48 L 477 48 Z M 477 40.503906 " clip-rule="nonzero"/></clipPath></defs><g clip-path="url(#a0c9264d75)"><path fill="#00d8ff" d="M 427.742188 119.125 C 426.648438 118.75 425.515625 118.394531 424.347656 118.058594 C 424.539062 117.273438 424.71875 116.5 424.875 115.742188 C 427.441406 103.269531 425.765625 93.222656 420.027344 89.914062 C 414.523438 86.742188 405.53125 90.050781 396.445312 97.957031 C 395.570312 98.71875 394.695312 99.523438 393.820312 100.367188 C 393.238281 99.808594 392.65625 99.269531 392.074219 98.753906 C 382.554688 90.300781 373.011719 86.734375 367.28125 90.054688 C 361.785156 93.234375 360.15625 102.679688 362.46875 114.5 C 362.691406 115.640625 362.953125 116.808594 363.25 117.992188 C 361.898438 118.375 360.59375 118.785156 359.347656 119.21875 C 348.183594 123.109375 341.054688 129.210938 341.054688 135.539062 C 341.054688 142.070312 348.710938 148.625 360.335938 152.601562 C 361.253906 152.914062 362.203125 153.210938 363.1875 153.488281 C 362.867188 154.769531 362.589844 156.027344 362.359375 157.253906 C 360.152344 168.867188 361.875 178.089844 367.355469 181.25 C 373.015625 184.515625 382.515625 181.15625 391.765625 173.074219 C 392.5 172.433594 393.234375 171.753906 393.964844 171.046875 C 394.921875 171.960938 395.871094 172.832031 396.816406 173.644531 C 405.777344 181.355469 414.628906 184.46875 420.101562 181.300781 C 425.753906 178.027344 427.597656 168.117188 425.207031 156.066406 C 425.027344 155.144531 424.8125 154.207031 424.578125 153.25 C 425.246094 153.054688 425.898438 152.847656 426.539062 152.636719 C 438.625 148.628906 446.488281 142.160156 446.488281 135.539062 C 446.488281 129.1875 439.128906 123.046875 427.742188 119.125 Z M 425.121094 148.363281 C 424.542969 148.550781 423.953125 148.738281 423.351562 148.914062 C 422.015625 144.691406 420.214844 140.199219 418.007812 135.558594 C 420.113281 131.027344 421.84375 126.59375 423.140625 122.398438 C 424.21875 122.707031 425.265625 123.039062 426.273438 123.386719 C 436.03125 126.746094 441.980469 131.710938 441.980469 135.539062 C 441.980469 139.609375 435.558594 144.902344 425.121094 148.363281 Z M 420.789062 156.941406 C 421.847656 162.269531 421.996094 167.089844 421.296875 170.859375 C 420.667969 174.242188 419.40625 176.5 417.84375 177.402344 C 414.519531 179.324219 407.417969 176.824219 399.757812 170.230469 C 398.875 169.472656 397.988281 168.667969 397.105469 167.8125 C 400.074219 164.566406 403.042969 160.789062 405.941406 156.589844 C 411.035156 156.140625 415.851562 155.402344 420.21875 154.390625 C 420.433594 155.261719 420.625 156.109375 420.789062 156.941406 Z M 377 177.066406 C 373.753906 178.21875 371.171875 178.25 369.605469 177.347656 C 366.28125 175.429688 364.898438 168.023438 366.785156 158.09375 C 367 156.957031 367.257812 155.789062 367.554688 154.59375 C 371.875 155.550781 376.652344 156.238281 381.761719 156.648438 C 384.679688 160.753906 387.734375 164.527344 390.8125 167.832031 C 390.140625 168.480469 389.46875 169.097656 388.804688 169.679688 C 384.714844 173.257812 380.613281 175.796875 377 177.066406 Z M 361.792969 148.335938 C 356.652344 146.578125 352.40625 144.296875 349.496094 141.800781 C 346.882812 139.566406 345.5625 137.339844 345.5625 135.539062 C 345.5625 131.699219 351.285156 126.800781 360.832031 123.472656 C 361.988281 123.066406 363.203125 122.6875 364.460938 122.328125 C 365.78125 126.621094 367.511719 131.109375 369.597656 135.644531 C 367.484375 140.25 365.726562 144.808594 364.394531 149.152344 C 363.5 148.894531 362.628906 148.621094 361.792969 148.335938 Z M 366.890625 113.632812 C 364.910156 103.507812 366.226562 95.867188 369.539062 93.953125 C 373.066406 91.910156 380.863281 94.820312 389.082031 102.121094 C 389.609375 102.585938 390.136719 103.074219 390.667969 103.582031 C 387.605469 106.871094 384.578125 110.613281 381.683594 114.695312 C 376.726562 115.15625 371.980469 115.894531 367.617188 116.882812 C 367.34375 115.777344 367.097656 114.695312 366.890625 113.632812 Z M 412.367188 124.863281 C 411.324219 123.0625 410.253906 121.304688 409.164062 119.589844 C 412.527344 120.015625 415.75 120.582031 418.773438 121.273438 C 417.871094 124.183594 416.738281 127.230469 415.402344 130.351562 C 414.445312 128.535156 413.433594 126.703125 412.367188 124.863281 Z M 393.820312 106.800781 C 395.902344 109.050781 397.980469 111.5625 400.027344 114.289062 C 397.964844 114.191406 395.875 114.140625 393.773438 114.140625 C 391.6875 114.140625 389.617188 114.191406 387.566406 114.289062 C 389.613281 111.585938 391.714844 109.078125 393.820312 106.800781 Z M 375.15625 124.894531 C 374.117188 126.703125 373.125 128.523438 372.183594 130.347656 C 370.871094 127.238281 369.75 124.179688 368.832031 121.222656 C 371.839844 120.550781 375.046875 120 378.390625 119.582031 C 377.28125 121.3125 376.203125 123.082031 375.15625 124.894531 Z M 378.484375 151.808594 C 375.03125 151.425781 371.777344 150.902344 368.769531 150.25 C 369.699219 147.242188 370.847656 144.121094 372.1875 140.941406 C 373.128906 142.765625 374.128906 144.585938 375.175781 146.398438 C 376.242188 148.242188 377.351562 150.046875 378.484375 151.808594 Z M 393.945312 164.589844 C 391.8125 162.285156 389.683594 159.738281 387.601562 157 C 389.621094 157.078125 391.679688 157.117188 393.773438 157.117188 C 395.921875 157.117188 398.046875 157.070312 400.136719 156.976562 C 398.085938 159.765625 396.007812 162.320312 393.945312 164.589844 Z M 415.445312 140.78125 C 416.851562 143.992188 418.042969 147.097656 418.984375 150.054688 C 415.929688 150.75 412.625 151.3125 409.152344 151.730469 C 410.246094 149.996094 411.324219 148.207031 412.386719 146.363281 C 413.460938 144.503906 414.480469 142.636719 415.445312 140.78125 Z M 408.484375 144.117188 C 406.835938 146.972656 405.144531 149.699219 403.425781 152.273438 C 400.300781 152.496094 397.066406 152.613281 393.773438 152.613281 C 390.488281 152.613281 387.296875 152.515625 384.226562 152.3125 C 382.4375 149.703125 380.710938 146.96875 379.074219 144.140625 C 377.441406 141.320312 375.9375 138.472656 374.574219 135.644531 C 375.9375 132.8125 377.4375 129.960938 379.058594 127.144531 C 380.6875 124.320312 382.402344 121.597656 384.171875 119.007812 C 387.304688 118.769531 390.523438 118.644531 393.773438 118.644531 C 397.039062 118.644531 400.253906 118.769531 403.390625 119.007812 C 405.136719 121.582031 406.835938 124.296875 408.472656 127.121094 C 410.121094 129.976562 411.640625 132.808594 413.011719 135.582031 C 411.644531 138.402344 410.128906 141.261719 408.484375 144.117188 Z M 417.773438 93.816406 C 421.308594 95.851562 422.679688 104.0625 420.460938 114.832031 C 420.320312 115.519531 420.160156 116.21875 419.984375 116.929688 C 415.613281 115.917969 410.863281 115.167969 405.894531 114.699219 C 402.992188 110.574219 399.992188 106.824219 396.976562 103.578125 C 397.789062 102.796875 398.597656 102.054688 399.402344 101.355469 C 407.1875 94.578125 414.464844 91.90625 417.773438 93.816406 Z M 393.773438 126.121094 C 398.96875 126.121094 403.1875 130.335938 403.1875 135.535156 C 403.1875 140.734375 398.96875 144.949219 393.773438 144.949219 C 388.574219 144.949219 384.359375 140.734375 384.359375 135.535156 C 384.359375 130.335938 388.574219 126.121094 393.773438 126.121094 Z M 393.773438 126.121094 " fill-opacity="1" fill-rule="nonzero"/></g><g clip-path="url(#78c2b8f87e)"><path fill="#010044" d="M 482.984375 51.992188 C 481.355469 52.722656 479.449219 52 478.722656 50.378906 C 478.007812 48.78125 478.761719 46.820312 480.359375 46.101562 C 481.953125 45.386719 483.921875 46.140625 484.625 47.738281 C 485.347656 49.382812 484.625 51.257812 482.984375 51.992188 Z M 521.589844 89.394531 C 519.300781 85.886719 516.3125 83.171875 512.769531 81.011719 C 502.355469 74.660156 494.019531 66.253906 487.816406 55.71875 C 487.207031 54.6875 487.023438 54.007812 487.757812 52.890625 C 489.617188 50.070312 489.214844 46.550781 486.996094 44.160156 C 484.796875 41.785156 481.375 41.128906 478.523438 42.535156 C 475.59375 43.980469 473.96875 47.191406 474.550781 50.398438 C 475.121094 53.5625 477.761719 56.003906 481.097656 56.257812 C 482.214844 56.34375 482.890625 56.648438 483.472656 57.667969 C 489.589844 68.363281 497.820312 77.074219 508.167969 83.75 C 511.453125 85.871094 514.835938 87.863281 517.042969 91.246094 C 520.457031 96.484375 521.460938 102.011719 518.359375 107.691406 C 516.679688 110.769531 514.40625 112.976562 511.648438 114.292969 L 513.273438 118.671875 C 514.238281 118.230469 515.1875 117.734375 516.105469 117.136719 C 525.238281 111.179688 527.675781 98.730469 521.589844 89.394531 " fill-opacity="1" fill-rule="nonzero"/></g><g clip-path="url(#e989701968)"><path fill="#010044" d="M 512.246094 113.988281 C 511.097656 114.40625 509.871094 114.714844 508.554688 114.898438 C 503.722656 115.574219 499.742188 114.144531 496.5 111.167969 C 495.480469 110.230469 494.53125 109.144531 493.65625 107.917969 C 493.519531 107.726562 493.453125 107.480469 493.296875 107.136719 C 494.460938 106.351562 495.589844 105.59375 497.101562 104.578125 C 490.539062 102.753906 484.878906 99.945312 479.785156 95.886719 C 481.171875 97.953125 482.523438 100.042969 483.949219 102.082031 C 486.621094 105.902344 488.847656 109.039062 491.9375 112.488281 C 492.417969 113.027344 493.085938 114.472656 493.605469 114.945312 C 499.1875 119.988281 506.855469 121.179688 513.644531 118.578125 C 513.539062 117.019531 513.097656 115.460938 512.265625 114.019531 C 512.257812 114.007812 512.25 113.996094 512.246094 113.988281 " fill-opacity="1" fill-rule="nonzero"/></g><path fill="#00d8ff" d="M 478.210938 57.277344 C 478.066406 57.277344 477.921875 57.242188 477.785156 57.167969 C 477.363281 56.933594 477.214844 56.398438 477.449219 55.976562 L 480.121094 51.152344 C 480.355469 50.730469 480.886719 50.574219 481.308594 50.8125 C 481.730469 51.046875 481.882812 51.578125 481.648438 52 L 478.972656 56.828125 C 478.8125 57.113281 478.515625 57.277344 478.210938 57.277344 " fill-opacity="1" fill-rule="nonzero"/><path fill="#00d8ff" d="M 475.082031 54.617188 C 474.816406 54.617188 474.554688 54.496094 474.382812 54.265625 C 474.09375 53.878906 474.171875 53.332031 474.558594 53.042969 L 479.382812 49.425781 C 479.769531 49.136719 480.316406 49.21875 480.605469 49.601562 C 480.894531 49.988281 480.8125 50.539062 480.429688 50.828125 L 475.601562 54.441406 C 475.445312 54.558594 475.261719 54.617188 475.082031 54.617188 " fill-opacity="1" fill-rule="nonzero"/><path fill="#00d8ff" d="M 473.820312 50.570312 C 473.40625 50.570312 473.039062 50.273438 472.964844 49.847656 C 472.878906 49.375 473.195312 48.921875 473.671875 48.835938 L 479.414062 47.824219 C 479.886719 47.734375 480.339844 48.054688 480.425781 48.53125 C 480.507812 49.007812 480.191406 49.460938 479.71875 49.542969 L 473.972656 50.558594 C 473.921875 50.566406 473.871094 50.570312 473.820312 50.570312 " fill-opacity="1" fill-rule="nonzero"/><path fill="#00d8ff" d="M 479.800781 47.949219 C 479.664062 47.949219 479.53125 47.917969 479.402344 47.851562 L 474.589844 45.378906 C 474.160156 45.160156 473.992188 44.632812 474.214844 44.203125 C 474.433594 43.773438 474.960938 43.601562 475.386719 43.824219 L 480.199219 46.296875 C 480.628906 46.519531 480.796875 47.042969 480.578125 47.472656 C 480.421875 47.777344 480.117188 47.949219 479.800781 47.949219 " fill-opacity="1" fill-rule="nonzero"/><g clip-path="url(#81b3fc459a)"><path fill="#00d8ff" d="M 480.894531 47.199219 C 480.59375 47.199219 480.304688 47.046875 480.140625 46.773438 L 477.277344 41.953125 C 477.03125 41.539062 477.164062 41.003906 477.578125 40.753906 C 477.992188 40.507812 478.527344 40.644531 478.773438 41.058594 L 481.640625 45.878906 C 481.886719 46.292969 481.753906 46.828125 481.339844 47.074219 C 481.199219 47.160156 481.042969 47.199219 480.894531 47.199219 " fill-opacity="1" fill-rule="nonzero"/></g><path fill="#00d8ff" d="M 419.0625 66.425781 C 418.96875 66.425781 418.871094 66.433594 418.769531 66.445312 C 417.285156 66.640625 415.597656 68.292969 415.351562 70.726562 C 415.167969 72.511719 415.769531 74.28125 417.0625 75.957031 C 421.089844 74.109375 422.847656 72.292969 421.425781 68.511719 C 420.914062 67.15625 420.082031 66.425781 419.0625 66.425781 Z M 452.226562 55.230469 C 448.878906 55.230469 446.359375 56.488281 444.894531 58.917969 C 442.554688 62.792969 443.222656 69.054688 446.519531 74.140625 C 448.132812 76.632812 450.175781 78.546875 452.503906 79.824219 C 453.097656 79.328125 453.621094 78.835938 454.074219 78.371094 C 459.199219 73.144531 461.613281 65.242188 459.695312 59.988281 C 458.984375 58.042969 457.347656 55.644531 453.585938 55.296875 C 453.117188 55.25 452.664062 55.230469 452.226562 55.230469 Z M 400.054688 108.988281 C 399.863281 108.988281 399.667969 108.921875 399.507812 108.792969 C 399.320312 108.640625 394.886719 105.003906 394.253906 98.972656 C 393.8125 94.78125 395.320312 90.523438 398.734375 86.324219 C 402.496094 81.699219 408.070312 79.539062 412.988281 77.636719 C 413.847656 77.300781 414.65625 76.984375 415.410156 76.675781 C 413.617188 74.132812 413.480469 71.851562 413.613281 70.546875 C 413.917969 67.546875 416.039062 65.039062 418.546875 64.710938 C 420.519531 64.453125 422.210938 65.644531 423.058594 67.894531 C 424.921875 72.847656 422.269531 75.375 418.285156 77.316406 C 420.535156 79.5 424.007812 81.464844 428.480469 83.015625 C 439.164062 86.710938 446.523438 84.097656 450.992188 80.980469 C 448.699219 79.582031 446.679688 77.601562 445.054688 75.089844 C 441.410156 69.464844 440.730469 62.441406 443.402344 58.011719 C 445.402344 54.699219 449.085938 53.125 453.746094 53.554688 C 457.390625 53.894531 460.085938 55.964844 461.335938 59.390625 C 463.503906 65.328125 460.976562 73.828125 455.320312 79.597656 C 454.992188 79.929688 454.632812 80.28125 454.238281 80.632812 C 456.605469 81.558594 459.203125 81.878906 461.925781 81.535156 C 467.449219 80.839844 471.5625 78.664062 474.152344 75.066406 C 478.726562 68.707031 477.050781 59.96875 477.035156 59.878906 C 476.941406 59.40625 477.246094 58.945312 477.71875 58.851562 C 478.191406 58.753906 478.652344 59.066406 478.746094 59.539062 C 478.824219 59.925781 480.582031 69.121094 475.566406 76.089844 C 472.683594 80.097656 468.167969 82.511719 462.140625 83.269531 C 458.777344 83.695312 455.566406 83.207031 452.710938 81.894531 C 447.988281 85.46875 439.878906 88.808594 427.914062 84.667969 C 422.148438 82.671875 418.65625 80.332031 416.566406 78.089844 C 415.613281 78.492188 414.621094 78.878906 413.617188 79.265625 C 408.902344 81.09375 403.554688 83.164062 400.089844 87.429688 C 396.984375 91.25 395.601562 95.0625 395.984375 98.769531 C 396.53125 104.070312 400.5625 107.398438 400.601562 107.433594 C 400.976562 107.734375 401.035156 108.285156 400.734375 108.660156 C 400.5625 108.875 400.308594 108.988281 400.054688 108.988281 " fill-opacity="1" fill-rule="nonzero"/><g fill="#145da0" fill-opacity="1"><g transform="translate(2.675497, 128.032097)"><g><path d="M 27.085938 0 L 19.109375 -12.859375 C 20.746094 -13.246094 22.0625 -13.90625 23.132812 -14.816406 C 25.3125 -16.496094 26.378906 -19.246094 26.378906 -22.699219 C 26.378906 -26.152344 25.246094 -28.609375 22.949219 -30.085938 C 21.085938 -31.378906 18.449219 -31.992188 14.859375 -31.992188 L 5.023438 -31.992188 L 5.023438 0 L 9.089844 0 L 9.089844 -12.429688 L 15.132812 -12.429688 L 22.335938 0 Z M 9.089844 -28.472656 L 14.335938 -28.472656 C 17.132812 -28.472656 19.15625 -28.175781 20.519531 -27.0625 C 21.585938 -26.175781 22.222656 -24.722656 22.222656 -22.539062 C 22.222656 -20.269531 21.632812 -18.746094 20.585938 -17.722656 C 19.292969 -16.40625 17.199219 -15.972656 14.335938 -15.972656 L 9.089844 -15.972656 Z M 9.089844 -28.472656 "/></g></g></g><g fill="#145da0" fill-opacity="1"><g transform="translate(32.276265, 128.032097)"><g><path d="M 22.175781 -28.289062 L 22.175781 -31.992188 L 5.023438 -31.992188 L 5.023438 0 L 22.175781 0 L 22.175781 -3.703125 L 9.179688 -3.703125 L 9.179688 -14.15625 L 20.632812 -14.15625 L 20.632812 -17.8125 L 9.179688 -17.8125 L 9.179688 -28.289062 Z M 22.175781 -28.289062 "/></g></g></g><g fill="#145da0" fill-opacity="1"><g transform="translate(57.219967, 128.032097)"><g><path d="M 25.5625 0 L 29.8125 0 L 18.019531 -31.992188 L 13.15625 -31.992188 L 1.363281 0 L 5.613281 0 L 8.339844 -7.65625 L 22.8125 -7.65625 Z M 9.632812 -11.246094 L 15.585938 -27.902344 L 21.539062 -11.246094 Z M 9.632812 -11.246094 "/></g></g></g><g fill="#145da0" fill-opacity="1"><g transform="translate(88.388235, 128.032097)"><g><path d="M 18.722656 0.433594 C 25.039062 0.433594 30.355469 -2.679688 32.855469 -8.066406 L 29.109375 -9.589844 C 27.152344 -5.636719 23.289062 -3.453125 18.722656 -3.453125 C 12.089844 -3.453125 6.839844 -8 6.839844 -16.019531 C 6.839844 -23.996094 12.089844 -28.539062 18.722656 -28.539062 C 23.289062 -28.539062 27.152344 -26.335938 29.109375 -22.382812 L 32.855469 -23.925781 C 30.355469 -29.289062 25.039062 -32.425781 18.722656 -32.425781 C 9.703125 -32.425781 2.792969 -26.222656 2.792969 -16.019531 C 2.792969 -5.773438 9.703125 0.433594 18.722656 0.433594 Z M 18.722656 0.433594 "/></g></g></g><g fill="#145da0" fill-opacity="1"><g transform="translate(123.191287, 128.032097)"><g><path d="M 21.746094 -31.992188 L 1.273438 -31.992188 L 1.273438 -28.289062 L 9.496094 -28.289062 L 9.496094 0 L 13.542969 0 L 13.542969 -28.289062 L 21.746094 -28.289062 Z M 21.746094 -31.992188 "/></g></g></g><g fill="#145da0" fill-opacity="1"><g transform="translate(146.20401, 128.032097)"><g/></g></g><g fill="#145da0" fill-opacity="1"><g transform="translate(158.289665, 128.032097)"><g><path d="M 5.023438 0 L 9.113281 0 L 9.113281 -14.203125 L 25.3125 -14.203125 L 25.3125 0 L 29.378906 0 L 29.378906 -31.992188 L 25.3125 -31.992188 L 25.3125 -17.859375 L 9.113281 -17.859375 L 9.113281 -31.992188 L 5.023438 -31.992188 Z M 5.023438 0 "/></g></g></g><g fill="#145da0" fill-opacity="1"><g transform="translate(192.683804, 128.032097)"><g><path d="M 18.722656 0.433594 C 27.652344 0.433594 34.605469 -5.773438 34.605469 -16.019531 C 34.605469 -26.222656 27.652344 -32.425781 18.722656 -32.425781 C 9.703125 -32.425781 2.792969 -26.222656 2.792969 -16.019531 C 2.792969 -5.773438 9.703125 0.433594 18.722656 0.433594 Z M 18.722656 -3.410156 C 12.089844 -3.410156 6.839844 -7.953125 6.839844 -16.019531 C 6.839844 -23.996094 12.089844 -28.539062 18.722656 -28.539062 C 25.3125 -28.539062 30.539062 -23.996094 30.539062 -16.019531 C 30.539062 -7.953125 25.3125 -3.410156 18.722656 -3.410156 Z M 18.722656 -3.410156 "/></g></g></g><g fill="#145da0" fill-opacity="1"><g transform="translate(230.076639, 128.032097)"><g><path d="M 18.722656 0.433594 C 27.652344 0.433594 34.605469 -5.773438 34.605469 -16.019531 C 34.605469 -26.222656 27.652344 -32.425781 18.722656 -32.425781 C 9.703125 -32.425781 2.792969 -26.222656 2.792969 -16.019531 C 2.792969 -5.773438 9.703125 0.433594 18.722656 0.433594 Z M 18.722656 -3.410156 C 12.089844 -3.410156 6.839844 -7.953125 6.839844 -16.019531 C 6.839844 -23.996094 12.089844 -28.539062 18.722656 -28.539062 C 25.3125 -28.539062 30.539062 -23.996094 30.539062 -16.019531 C 30.539062 -7.953125 25.3125 -3.410156 18.722656 -3.410156 Z M 18.722656 -3.410156 "/></g></g></g><g fill="#145da0" fill-opacity="1"><g transform="translate(267.469475, 128.032097)"><g><path d="M 15.382812 -16.746094 L 27.949219 -31.992188 L 22.949219 -31.992188 L 11.859375 -18.472656 L 9.089844 -18.472656 L 9.089844 -31.992188 L 5.023438 -31.992188 L 5.023438 0 L 9.089844 0 L 9.089844 -14.792969 L 11.859375 -14.792969 L 23.402344 0 L 28.628906 0 Z M 15.382812 -16.746094 "/></g></g></g><g fill="#145da0" fill-opacity="1"><g transform="translate(297.320135, 128.032097)"><g><path d="M 14.929688 0.433594 C 21.175781 0.433594 26.222656 -2.523438 26.222656 -8.65625 C 26.222656 -15.15625 20.382812 -16.65625 15.222656 -18.019531 C 11.066406 -19.085938 7.429688 -20.085938 7.429688 -23.652344 C 7.429688 -27.425781 10.792969 -28.902344 14.109375 -28.902344 C 17.8125 -28.902344 20.949219 -27.265625 21.925781 -23.675781 L 25.722656 -24.652344 C 24.515625 -30.015625 19.585938 -32.425781 13.953125 -32.425781 C 8.269531 -32.425781 3.339844 -29.492188 3.339844 -23.585938 C 3.339844 -17.679688 8.292969 -16.15625 13.292969 -14.816406 C 17.746094 -13.609375 21.996094 -12.566406 22.0625 -8.542969 C 22.132812 -4.523438 18.609375 -3.066406 14.996094 -3.066406 C 10.65625 -3.066406 7.363281 -5.203125 6.386719 -9 L 2.386719 -8.042969 C 3.476562 -2.75 8.269531 0.433594 14.929688 0.433594 Z M 14.929688 0.433594 "/></g></g></g><g fill="#145da0" fill-opacity="1"><g transform="translate(326.185661, 128.032097)"><g/></g></g></svg>